<svg width="30" height="30" viewBox="0 0 30 30" fill="none" xmlns="http://www.w3.org/2000/svg">
<circle cx="15" cy="15" r="15" fill="#BAF7D3"/>
<rect width="18" height="18" transform="translate(6.00195 6)" fill="white" fill-opacity="0.01"/>
<path fill-rule="evenodd" clip-rule="evenodd" d="M19.1948 11.937C18.7851 11.521 18.1194 11.521 17.7098 11.937L13.9298 15.7904L12.2942 14.123C12.0893 13.9142 11.8209 13.8098 11.5525 13.8098C11.2825 13.8098 11.0141 13.9142 10.8092 14.123C10.3995 14.5406 10.3995 15.2193 10.8092 15.6368L13.1879 18.0618C13.3866 18.2627 13.6488 18.375 13.9296 18.375C14.2104 18.375 14.4742 18.2627 14.6729 18.0618L19.1946 13.4507C19.6044 13.0347 19.6044 12.3545 19.1948 11.937Z" fill="#0E7C3A"/>
</svg>
