<svg width="21" height="21" viewBox="0 0 21 21" fill="none" xmlns="http://www.w3.org/2000/svg">
<rect x="0.422889" y="0.577674" width="20.0769" height="20.0769" rx="10.0385" fill="#FEFEFF"/>
<rect x="0.422889" y="0.577674" width="20.0769" height="20.0769" rx="10.0385" stroke="#ED8F03" stroke-width="0.692308"/>
<path d="M10.7152 14.0885C10.6401 14.0885 10.5758 14.067 10.5221 14.0241C10.4685 13.9812 10.431 13.9276 10.4095 13.8632C10.2593 13.4127 10.077 13.0373 9.86245 12.7369C9.64792 12.4366 9.43339 12.147 9.21885 11.8681C9.00432 11.5892 8.82465 11.2996 8.67984 10.9992C8.53503 10.6989 8.46263 10.3342 8.46263 9.90509C8.46263 9.28295 8.68252 8.75199 9.12232 8.31219C9.56211 7.8724 10.0931 7.65251 10.7152 7.65251C11.3374 7.65251 11.8683 7.8724 12.3081 8.31219C12.7479 8.75199 12.9678 9.28295 12.9678 9.90509C12.9678 10.3342 12.8954 10.6989 12.7506 10.9992C12.6058 11.2996 12.4261 11.5892 12.2116 11.8681C11.997 12.147 11.7825 12.4366 11.568 12.7369C11.3534 13.0373 11.1711 13.4127 11.0209 13.8632C10.9995 13.9276 10.9619 13.9812 10.9083 14.0241C10.8547 14.067 10.7903 14.0885 10.7152 14.0885ZM10.7152 12.2864C10.8118 12.1362 10.9083 11.9968 11.0048 11.8681C11.1014 11.7393 11.1925 11.616 11.2784 11.498C11.5251 11.1762 11.7074 10.908 11.8254 10.6935C11.9434 10.479 12.0024 10.2162 12.0024 9.90509C12.0024 9.55112 11.8764 9.24809 11.6243 8.99602C11.3722 8.74394 11.0692 8.6179 10.7152 8.6179C10.3612 8.6179 10.0582 8.74394 9.80614 8.99602C9.55406 9.24809 9.42802 9.55112 9.42802 9.90509C9.42802 10.2162 9.48702 10.479 9.60501 10.6935C9.72301 10.908 9.90536 11.1762 10.1521 11.498C10.2379 11.616 10.3291 11.7393 10.4256 11.8681C10.5221 11.9968 10.6187 12.1362 10.7152 12.2864ZM10.7152 10.7096C10.9405 10.7096 11.1309 10.6318 11.2864 10.4763C11.4419 10.3208 11.5197 10.1304 11.5197 9.90509C11.5197 9.67984 11.4419 9.48944 11.2864 9.3339C11.1309 9.17837 10.9405 9.1006 10.7152 9.1006C10.49 9.1006 10.2996 9.17837 10.144 9.3339C9.98849 9.48944 9.91072 9.67984 9.91072 9.90509C9.91072 10.1304 9.98849 10.3208 10.144 10.4763C10.2996 10.6318 10.49 10.7096 10.7152 10.7096ZM10.7152 16.6629C9.10623 16.6629 7.73858 16.0997 6.61229 14.9734C5.486 13.8471 4.92285 12.4795 4.92285 10.8705C4.92285 10.066 5.07571 9.31245 5.38141 8.60986C5.68712 7.90727 6.1001 7.29585 6.62034 6.77561C7.14058 6.25537 7.75199 5.8424 8.45458 5.53669C9.15718 5.23098 9.91072 5.07812 10.7152 5.07812C11.5197 5.07812 12.2733 5.23098 12.9758 5.53669C13.6784 5.8424 14.2899 6.25537 14.8101 6.77561C15.3303 7.29585 15.7433 7.90727 16.049 8.60986C16.3547 9.31245 16.5076 10.066 16.5076 10.8705V10.9992L17.3603 10.1304L18.2775 11.0314L15.864 13.4449L13.4505 11.0314L14.3676 10.1304L15.2204 10.9831V10.8705C15.2204 9.6262 14.7806 8.56427 13.901 7.68469C13.0214 6.80511 11.9595 6.36532 10.7152 6.36532C9.47093 6.36532 8.409 6.80511 7.52942 7.68469C6.64983 8.56427 6.21004 9.6262 6.21004 10.8705C6.22077 12.1148 6.66324 13.1767 7.53746 14.0563C8.41168 14.9359 9.47093 15.3757 10.7152 15.3757C11.3266 15.3757 11.9005 15.2603 12.4368 15.0297C12.9732 14.7991 13.4451 14.4854 13.8527 14.0885L14.7699 15.0056C14.2443 15.5205 13.6355 15.9254 12.9437 16.2204C12.2518 16.5154 11.509 16.6629 10.7152 16.6629Z" fill="#ED8F03"/>
<path d="M7.69189 9.23122C7.69189 8.08417 8.62176 7.1543 9.76882 7.1543H13.2304V12.6928C13.2304 13.8398 12.3005 14.7697 11.1534 14.7697H9.76882C8.62176 14.7697 7.69189 13.8398 7.69189 12.6928V9.23122Z" fill="white"/>
<path d="M13.2303 12.1673V12.8969C13.2306 12.9646 13.2167 13.0316 13.1895 13.0937C13.1623 13.1558 13.1224 13.2115 13.0724 13.2572C13.0224 13.303 12.9634 13.3379 12.8991 13.3596C12.8348 13.3813 12.7667 13.3893 12.6991 13.3832C11.9493 13.3019 11.2291 13.0462 10.5963 12.6367C10.0075 12.2633 9.50841 11.7652 9.1343 11.1776C8.72251 10.5432 8.46624 9.82089 8.38626 9.06922C8.38017 9.00197 8.38817 8.9342 8.40977 8.87021C8.43136 8.80622 8.46607 8.74742 8.51168 8.69755C8.5573 8.64768 8.61281 8.60784 8.6747 8.58055C8.73659 8.55327 8.80349 8.53915 8.87115 8.53909H9.60213C9.72039 8.53792 9.83503 8.57972 9.92469 8.65667C10.0143 8.73363 10.0729 8.8405 10.0895 8.95736C10.1203 9.19083 10.1775 9.42006 10.26 9.64069C10.2928 9.72773 10.2999 9.82233 10.2805 9.91327C10.261 10.0042 10.2159 10.0877 10.1504 10.1538L9.84093 10.4626C10.1878 11.0715 10.6929 11.5755 11.3029 11.9217L11.6124 11.6129C11.6786 11.5475 11.7622 11.5024 11.8534 11.4831C11.9445 11.4637 12.0393 11.4707 12.1265 11.5035C12.3476 11.5858 12.5772 11.6429 12.8112 11.6737C12.9295 11.6903 13.0376 11.7498 13.1149 11.8409C13.1922 11.9319 13.2332 12.0481 13.2303 12.1673Z" fill="#FEFEFF" stroke="#ED8F03" stroke-width="0.692308" stroke-linecap="round" stroke-linejoin="round"/>
</svg>
