<svg width="20" height="20" viewBox="0 0 20 20" fill="none" xmlns="http://www.w3.org/2000/svg">
<path fill-rule="evenodd" clip-rule="evenodd" d="M9 11C9 12.1947 8.47625 13.2671 7.64582 14H12.3542C11.5238 13.2671 11 12.1947 11 11C11 8.79086 12.7909 7 15 7C17.2091 7 19 8.79086 19 11C19 13.2091 17.2091 15 15 15H5C2.79086 15 1 13.2091 1 11C1 8.79086 2.79086 7 5 7C7.20914 7 9 8.79086 9 11ZM5 14C6.65685 14 8 12.6569 8 11C8 9.34315 6.65685 8 5 8C3.34315 8 2 9.34315 2 11C2 12.6569 3.34315 14 5 14ZM15 14C16.6569 14 18 12.6569 18 11C18 9.34315 16.6569 8 15 8C13.3431 8 12 9.34315 12 11C12 12.6569 13.3431 14 15 14Z" fill="#2867B2"/>
</svg>
