<svg width="133" height="40" viewBox="0 0 133 40" fill="none" xmlns="http://www.w3.org/2000/svg">
<path d="M13.929 18.989C14.5292 19.3822 15.0362 19.8479 15.4501 20.3859C15.8847 20.9033 16.2261 21.5448 16.4744 22.3105C16.7435 23.159 16.878 24.0178 16.878 24.8869C16.8987 25.7354 16.7435 26.5321 16.4124 27.2771C16.1019 28.0014 15.5949 28.643 14.8913 29.2017C14.2084 29.7398 13.3082 30.1226 12.1907 30.3502C11.5906 30.4951 10.887 30.6089 10.0799 30.6917C9.27282 30.7745 8.54851 30.8159 7.90699 30.8159C7.09991 30.8366 6.26179 30.8366 5.39263 30.8159C4.54416 30.8159 3.71639 30.7331 2.90931 30.5675C2.55751 30.4641 2.29883 30.2882 2.13327 30.0398C1.98841 29.7708 1.88494 29.4707 1.82286 29.1396C1.74008 28.9534 1.69869 28.7671 1.69869 28.5809V10.9493C1.69869 10.3699 1.81251 9.92493 2.04015 9.61452C2.28848 9.28341 2.60924 9.04542 3.00243 8.90056C3.39563 8.73501 3.84055 8.64189 4.33722 8.62119C4.83388 8.5798 5.35124 8.55911 5.88929 8.55911C6.30318 8.55911 6.71707 8.55911 7.13095 8.55911C7.56553 8.53841 8.00011 8.53841 8.43469 8.55911C9.11761 8.5798 9.82121 8.64188 10.5455 8.74536C11.2905 8.82813 11.9941 8.99369 12.6563 9.24202C12.9668 9.34549 13.2979 9.49035 13.6497 9.6766C14.0015 9.84216 14.2808 10.0491 14.4878 10.2974C15.15 10.8976 15.6363 11.6012 15.9467 12.4083C16.2778 13.1946 16.4227 14.0017 16.3813 14.8295C16.3399 15.6366 16.1123 16.4126 15.6984 17.1576C15.3052 17.9026 14.7154 18.5131 13.929 18.989ZM8.49678 27.215C9.1383 27.1737 9.79017 27.1012 10.4524 26.9978C11.1146 26.8943 11.5699 26.6977 11.8182 26.408C12.0872 26.0769 12.2735 25.694 12.377 25.2594C12.5011 24.8042 12.5322 24.3489 12.4701 23.8936C12.4287 23.4176 12.2942 22.9727 12.0665 22.5588C11.8596 22.1242 11.5802 21.7828 11.2284 21.5345C10.7525 21.162 10.2041 20.924 9.58323 20.8205C8.9624 20.6963 8.35192 20.6342 7.75178 20.6342C7.46206 20.6342 7.19304 20.6446 6.9447 20.6653C6.71707 20.6653 6.51012 20.6963 6.32387 20.7584C6.15832 20.7998 6.03415 20.8929 5.95138 21.0378C5.8686 21.1826 5.82721 21.3999 5.82721 21.6897C5.8686 22.2277 5.8686 22.7658 5.82721 23.3038C5.78582 23.8419 5.76513 24.3592 5.76513 24.8559C5.76513 25.1456 5.75478 25.4664 5.73408 25.8182C5.73408 26.1493 5.8479 26.4287 6.07554 26.6563C6.30318 26.8839 6.63429 27.0391 7.06887 27.1219C7.50345 27.2047 7.97942 27.2357 8.49678 27.215ZM9.11761 12.3151C8.47608 12.2944 7.93803 12.2841 7.50345 12.2841C7.08956 12.2634 6.75845 12.2944 6.51012 12.3772C6.28248 12.4393 6.11693 12.5945 6.01346 12.8428C5.93068 13.0705 5.89964 13.4223 5.92033 13.8982C5.92033 14.2914 5.90999 14.6846 5.88929 15.0778C5.88929 15.4503 5.88929 15.8228 5.88929 16.1953C5.88929 16.6092 6.02381 16.9196 6.29283 17.1266C6.56186 17.3128 6.89297 17.4266 7.28616 17.468C7.70005 17.5094 8.12428 17.5094 8.55886 17.468C9.01414 17.4266 9.40733 17.3749 9.73844 17.3128C10.4834 17.1886 11.0525 16.9403 11.4457 16.5678C11.8596 16.1746 12.0976 15.6055 12.1597 14.8605C12.2425 13.9293 11.9941 13.2878 11.4147 12.936C10.8559 12.5635 10.0902 12.3565 9.11761 12.3151ZM22.8889 18.6786C22.8889 19.2581 22.8889 19.9099 22.8889 20.6342C22.9096 21.3585 22.9199 22.1139 22.9199 22.9003C22.9199 23.666 22.9199 24.4317 22.9199 25.1973C22.9199 25.9423 22.9096 26.6356 22.8889 27.2771C22.8682 27.5875 22.8371 27.929 22.7957 28.3015C22.7544 28.6533 22.6716 28.9844 22.5474 29.2948C22.4233 29.6052 22.2267 29.8639 21.9576 30.0709C21.7093 30.2571 21.3678 30.3399 20.9333 30.3192C20.2917 30.2778 19.8261 29.9984 19.5364 29.4811C19.2674 28.9637 19.1122 28.2394 19.0708 27.3082C19.0708 26.8322 19.0604 26.2838 19.0397 25.663C19.0397 25.0421 19.0294 24.411 19.0087 23.7694C19.0087 23.1279 19.0087 22.5071 19.0087 21.9069C19.0087 21.2861 19.0087 20.7274 19.0087 20.2307C19.0087 19.941 18.9983 19.5892 18.9776 19.1753C18.9776 18.7614 18.988 18.3372 19.0087 17.9026C19.0294 17.468 19.0811 17.0541 19.1639 16.6609C19.2467 16.2471 19.3812 15.9056 19.5674 15.6366C19.7123 15.471 19.9192 15.3468 20.1883 15.2641C20.4573 15.1606 20.7367 15.1089 21.0264 15.1089C21.3368 15.1089 21.6265 15.1606 21.8955 15.2641C22.1853 15.3675 22.3922 15.5124 22.5164 15.6987C22.5992 15.8228 22.6612 15.9987 22.7026 16.2264C22.744 16.454 22.7751 16.7127 22.7957 17.0024C22.8371 17.2714 22.8578 17.5611 22.8578 17.8716C22.8785 18.1613 22.8889 18.4303 22.8889 18.6786ZM21.7093 12.4083C21.0678 12.5738 20.5297 12.5117 20.0951 12.222C19.6813 11.9116 19.4226 11.4563 19.3191 10.8562C19.2363 10.4216 19.2674 10.0388 19.4122 9.70764C19.5571 9.37653 19.7744 9.1282 20.0641 8.96265C20.3538 8.7764 20.6849 8.69362 21.0574 8.71431C21.4299 8.73501 21.8024 8.87987 22.1749 9.1489C22.5267 9.39723 22.7751 9.68695 22.9199 10.0181C23.0855 10.3492 23.1372 10.6699 23.0751 10.9803C23.0337 11.2908 22.8992 11.5805 22.6716 11.8495C22.4439 12.0978 22.1232 12.2841 21.7093 12.4083ZM38.8711 16.7541C39.0367 17.1473 39.047 17.5818 38.9022 18.0578C38.778 18.5338 38.54 18.8442 38.1882 18.989C38.002 19.0718 37.7536 19.1443 37.4432 19.2063C37.1328 19.2477 36.7913 19.2891 36.4188 19.3305C36.067 19.3719 35.7152 19.4029 35.3634 19.4236C35.0116 19.4443 34.7116 19.4547 34.4632 19.4547C34.4839 20.0755 34.5046 20.717 34.5253 21.3792C34.546 22.0208 34.5667 22.6519 34.5874 23.2728C34.6081 23.8936 34.6184 24.4937 34.6184 25.0732C34.6184 25.6319 34.6081 26.1389 34.5874 26.5942C34.5874 26.9046 34.5874 27.2668 34.5874 27.6807C34.5874 28.0739 34.5564 28.4567 34.4943 28.8292C34.4529 29.2017 34.3804 29.5328 34.277 29.8225C34.1735 30.0916 34.0183 30.2675 33.8114 30.3502C33.1698 30.6193 32.58 30.6917 32.042 30.5675C31.5246 30.4641 31.1521 30.2468 30.9245 29.9157C30.7589 29.6466 30.6348 29.3362 30.552 28.9844C30.4692 28.6119 30.4071 28.2394 30.3658 27.8669C30.3451 27.4737 30.3347 27.1012 30.3347 26.7494C30.3554 26.3769 30.3658 26.0562 30.3658 25.7871C30.3864 24.918 30.3968 23.935 30.3968 22.8382C30.4175 21.7207 30.4278 20.6032 30.4278 19.4857H29.9622C29.7139 19.4857 29.3931 19.4857 28.9999 19.4857C28.6274 19.465 28.2446 19.434 27.8514 19.3926C27.4789 19.3305 27.1271 19.2581 26.796 19.1753C26.4649 19.0718 26.2269 18.927 26.082 18.7407C25.8544 18.4717 25.7095 18.182 25.6474 17.8716C25.6061 17.5611 25.6267 17.2714 25.7095 17.0024C25.813 16.7127 25.9682 16.4643 26.1751 16.2574C26.3821 16.0298 26.6201 15.8849 26.8891 15.8228C27.2616 15.7193 27.7893 15.6676 28.4722 15.6676C29.1551 15.6469 29.7967 15.6469 30.3968 15.6676C30.3761 15.4607 30.3658 15.2641 30.3658 15.0778C30.3658 14.8709 30.3554 14.6743 30.3347 14.488C30.314 14.2397 30.3037 13.9293 30.3037 13.5568C30.3037 13.1636 30.3244 12.7808 30.3658 12.4083C30.4278 12.0151 30.521 11.6529 30.6451 11.3218C30.7693 10.97 30.9452 10.701 31.1728 10.5147C31.4832 10.2664 31.7937 10.1319 32.1041 10.1112C32.4352 10.0698 32.7353 10.1112 33.0043 10.2353C33.294 10.3595 33.532 10.5458 33.7182 10.7941C33.9252 11.0217 34.07 11.2804 34.1528 11.5701C34.2149 11.8185 34.2666 12.1185 34.308 12.4703C34.3494 12.8014 34.3701 13.1532 34.3701 13.5257C34.3908 13.8982 34.4011 14.2707 34.4011 14.6432C34.4011 15.0157 34.4011 15.3572 34.4011 15.6676H34.7116C35.022 15.6676 35.3841 15.6573 35.798 15.6366C36.2119 15.6159 36.6154 15.6262 37.0086 15.6676C37.4225 15.709 37.795 15.8125 38.1261 15.978C38.4572 16.1229 38.7056 16.3816 38.8711 16.7541Z" fill="#2867B2"/>
<path d="M47.6088 30.4434L52.0167 9.70764H56.9833L53.5377 26.1286H63.471L62.5398 30.4434H47.6088ZM73.4938 12.5014C72.7281 12.5014 72.0762 12.2324 71.5382 11.6943C71.0001 11.1356 70.7311 10.4733 70.7311 9.70764C70.7311 8.94195 71.0001 8.29008 71.5382 7.75203C72.0762 7.21398 72.7281 6.94495 73.4938 6.94495C74.2802 6.94495 74.9424 7.21398 75.4804 7.75203C76.0185 8.29008 76.2875 8.94195 76.2875 9.70764C76.2875 10.4733 76.0185 11.1356 75.4804 11.6943C74.9424 12.2324 74.2802 12.5014 73.4938 12.5014ZM66.7267 30.4434L69.2411 18.6476H66.0438L66.8199 15.0468H74.8286L71.5692 30.4434H66.7267ZM76.3462 30.4434L79.6056 15.0468H83.8272L83.9824 17.0334C84.417 16.4333 85.0689 15.8849 85.938 15.3882C86.8072 14.8709 87.9247 14.6122 89.2905 14.6122C90.5115 14.6122 91.4945 14.964 92.2394 15.6676C93.0051 16.3505 93.388 17.4887 93.388 19.0822C93.388 19.4754 93.3569 19.8893 93.2949 20.3238C93.2535 20.7584 93.181 21.224 93.0776 21.7207L91.2151 30.4434H86.3726L88.1109 22.2794C88.2972 21.4724 88.3903 20.7998 88.3903 20.2618C88.3903 19.5581 88.2454 19.0511 87.9557 18.7407C87.666 18.4303 87.2314 18.2751 86.652 18.2751C84.7274 18.2751 83.4651 19.703 82.8649 22.5588L81.1887 30.4434H76.3462ZM95.5936 30.4434L100.002 9.70764H104.813L102.547 20.2928L108.29 15.0468H114.436L106.862 21.6586L111.363 30.4434H106.303L103.354 24.7317L101.243 26.5942L100.436 30.4434H95.5936ZM122.026 30.8469C121.24 30.8469 120.36 30.7538 119.388 30.5675C118.436 30.3813 117.525 29.9984 116.656 29.419C115.808 28.8395 115.125 27.9807 114.607 26.8425L118.643 25.4767C118.808 26.1803 119.212 26.6873 119.853 26.9978C120.495 27.3082 121.167 27.4634 121.871 27.4634C122.533 27.4634 123.123 27.3392 123.64 27.0909C124.158 26.8425 124.416 26.5218 124.416 26.1286C124.416 25.7561 124.209 25.456 123.796 25.2284C123.382 25.0008 122.844 24.7938 122.181 24.6076C121.54 24.4213 120.857 24.2144 120.133 23.9867C119.408 23.7591 118.715 23.4694 118.053 23.1176C117.411 22.7451 116.884 22.2588 116.47 21.6586C116.056 21.0585 115.849 20.2928 115.849 19.3615C115.849 18.451 116.139 17.6439 116.718 16.9403C117.298 16.216 118.084 15.6469 119.077 15.233C120.091 14.8191 121.219 14.6122 122.461 14.6122C123.951 14.6122 125.317 14.8605 126.558 15.3572C127.821 15.8539 128.814 16.7437 129.538 18.0268L125.441 19.4236C125.234 18.8856 124.851 18.5234 124.292 18.3372C123.754 18.1509 123.123 18.0578 122.399 18.0578C121.674 18.0578 121.147 18.182 120.816 18.4303C120.484 18.6786 120.319 18.9373 120.319 19.2063C120.319 19.5995 120.526 19.9203 120.94 20.1686C121.354 20.417 121.892 20.6342 122.554 20.8205C123.216 20.9861 123.92 21.1723 124.665 21.3792C125.41 21.5862 126.113 21.8552 126.776 22.1863C127.438 22.5174 127.976 22.9624 128.39 23.5211C128.804 24.0592 129.011 24.7524 129.011 25.6009C129.011 27.1943 128.379 28.4671 127.117 29.419C125.875 30.3709 124.178 30.8469 122.026 30.8469Z" fill="#333333"/>
<path d="M45.9141 36.9141H131.014" stroke="#2867B2" stroke-width="2.11429" stroke-linecap="round"/>
</svg>
