<svg width="22" height="21" viewBox="0 0 22 21" fill="none" xmlns="http://www.w3.org/2000/svg">
<rect x="1.26908" y="0.577674" width="20.0769" height="20.0769" rx="10.0385" fill="#FEFEFF"/>
<rect x="1.26908" y="0.577674" width="20.0769" height="20.0769" rx="10.0385" stroke="#64696C" stroke-width="0.692308"/>
<path fill-rule="evenodd" clip-rule="evenodd" d="M7.25146 5.75673C7.46588 5.54275 7.75509 5.42383 8.05515 5.42383C8.35527 5.42383 8.64455 5.5428 8.85898 5.75688C8.85898 5.75688 8.85897 5.75688 8.85898 5.75688L10.2636 7.15912C10.3699 7.26524 10.4547 7.39165 10.5126 7.53132C10.5706 7.67102 10.6005 7.82101 10.6005 7.97268C10.6005 8.12434 10.5706 8.27434 10.5126 8.41403C10.4547 8.55371 10.3699 8.68012 10.2636 8.78624C10.1804 8.86941 10.135 8.98057 10.135 9.09486C10.135 9.20921 10.1804 9.32042 10.2637 9.4036L12.5104 11.6479C12.5105 11.6479 12.5104 11.6479 12.5104 11.6479C12.594 11.7313 12.7088 11.7794 12.83 11.7794C12.9512 11.7794 13.0659 11.7313 13.1494 11.648C13.2557 11.5418 13.3815 11.458 13.5194 11.4009C13.6573 11.3439 13.8048 11.3146 13.9537 11.3146C14.1025 11.3146 14.2501 11.3439 14.388 11.4009C14.5258 11.458 14.6515 11.5417 14.7577 11.6478C14.7578 11.6479 14.7577 11.6478 14.7577 11.6478L16.1629 13.0501C16.2692 13.1562 16.354 13.2827 16.412 13.4223C16.4699 13.562 16.4999 13.712 16.4999 13.8637C16.4999 14.0153 16.4699 14.1653 16.412 14.305C16.354 14.4447 16.2692 14.5711 16.1629 14.6772L15.8299 15.0098C15.3902 15.4492 14.8147 15.7247 14.1989 15.7922C13.5831 15.8597 12.9622 15.7156 12.4385 15.3825C12.4342 15.3798 12.43 15.377 12.4259 15.3742L12.4229 15.3721C10.1096 13.8108 8.11693 11.821 6.55285 9.50992C6.54928 9.50464 6.54586 9.49927 6.54258 9.49381L6.54175 9.49244C6.20871 8.96819 6.06365 8.34537 6.13159 7.72659C6.1997 7.10623 6.47758 6.52893 6.91762 6.0896L7.25146 5.75673C7.25152 5.75668 7.25141 5.75679 7.25146 5.75673ZM8.05515 6.12993C7.93394 6.12993 7.81913 6.17808 7.73558 6.26148L7.4019 6.5942C7.07457 6.921 6.86975 7.34834 6.8196 7.80516C6.76945 8.26193 6.8767 8.72269 7.12472 9.11155L7.12865 9.11772C8.64169 11.3509 10.5692 13.2746 12.8073 14.7848L12.8115 14.7876C13.2016 15.0336 13.6647 15.1406 14.1249 15.0901C14.5877 15.0394 15.0181 14.8326 15.3454 14.5054L15.6786 14.1726C15.72 14.1314 15.7524 14.0827 15.7744 14.0298C15.7963 13.9769 15.8075 13.9205 15.8075 13.8637C15.8075 13.8069 15.7963 13.7504 15.7744 13.6975C15.7524 13.6446 15.7201 13.5961 15.6787 13.5548C15.6787 13.5548 15.6787 13.5548 15.6787 13.5548L14.2736 12.1525C14.2322 12.1113 14.1826 12.0779 14.1277 12.0552C14.0727 12.0325 14.0136 12.0207 13.9537 12.0207C13.8938 12.0207 13.8346 12.0325 13.7797 12.0552C13.7247 12.0779 13.6753 12.1111 13.634 12.1524C13.4195 12.3665 13.1301 12.4855 12.83 12.4855C12.5299 12.4855 12.2406 12.3666 12.0262 12.1525L9.77929 9.90805C9.56467 9.69365 9.44273 9.4013 9.44273 9.09486C9.44273 8.78843 9.56467 8.49608 9.77928 8.28168C9.82061 8.24044 9.85311 8.19175 9.87507 8.13883C9.89702 8.08593 9.90822 8.02949 9.90822 7.97268C9.90822 7.91587 9.89702 7.85943 9.87507 7.80653C9.85311 7.75361 9.82073 7.70504 9.7794 7.66379L8.37472 6.26149C8.29117 6.17809 8.17635 6.12993 8.05515 6.12993Z" fill="#171717"/>
</svg>
