<svg width="30" height="30" viewBox="0 0 30 30" fill="none" xmlns="http://www.w3.org/2000/svg">
<rect x="0.5" y="0.5" width="29" height="29" rx="14.5" fill="#FEFEFF"/>
<rect x="0.5" y="0.5" width="29" height="29" rx="14.5" stroke="#64696C"/>
<path fill-rule="evenodd" clip-rule="evenodd" d="M8 10C7.44772 10 7 10.4477 7 11V20C7 20.5523 7.44772 21 8 21H22C22.5523 21 23 20.5523 23 20V11C23 10.4477 22.5523 10 22 10H8ZM21.8241 11L8.17591 11L8.31311 11.1102L13.9236 15.6166L13.9236 15.6167C14.2348 15.8667 14.6133 16 15 16C15.3867 16 15.7652 15.8667 16.0764 15.6167L16.0764 15.6166L21.6869 11.1102L21.8241 11ZM8 12.1413V20H22V12.1413L16.7027 16.3963L16.7026 16.3963C16.2171 16.7863 15.6185 17 15 17C14.3814 17 13.7829 16.7863 13.2973 16.3963L8 12.1413Z" fill="#171717"/>
</svg>
