<svg width="20" height="20" viewBox="0 0 20 20" fill="none" xmlns="http://www.w3.org/2000/svg">
<path d="M14.8213 2.91602H5.11738C4.47398 2.91602 3.85692 3.17161 3.40196 3.62657C2.947 4.08153 2.69141 4.69858 2.69141 5.34199V15.0459C2.69141 15.6893 2.947 16.3064 3.40196 16.7613C3.85692 17.2163 4.47398 17.4719 5.11738 17.4719H14.8213C15.4647 17.4719 16.0818 17.2163 16.5367 16.7613C16.9917 16.3064 17.2473 15.6893 17.2473 15.0459V5.34199C17.2473 4.69858 16.9917 4.08153 16.5367 3.62657C16.0818 3.17161 15.4647 2.91602 14.8213 2.91602ZM11.1823 12.6199V15.0459H9.36285C8.88029 15.0459 8.4175 14.8542 8.07628 14.513C7.73506 14.1718 7.54336 13.709 7.54336 13.2264C7.55026 13.019 7.59124 12.8141 7.66466 12.6199L8.97469 8.98096H11.5584L10.2362 12.6199H11.1823ZM11.1823 8.07122C10.8824 8.07122 10.5893 7.98229 10.34 7.81569C10.0906 7.64908 9.89627 7.41228 9.78151 7.13522C9.66675 6.85817 9.63672 6.5533 9.69523 6.25918C9.75373 5.96506 9.89814 5.69489 10.1102 5.48284C10.3222 5.27079 10.5924 5.12638 10.8865 5.06788C11.1806 5.00938 11.4855 5.0394 11.7626 5.15416C12.0396 5.26892 12.2764 5.46326 12.443 5.71261C12.6096 5.96195 12.6986 6.2551 12.6986 6.55498C12.6986 6.7541 12.6593 6.95126 12.5831 7.13522C12.507 7.31918 12.3953 7.48633 12.2545 7.62712C12.1137 7.76792 11.9465 7.87961 11.7626 7.9558C11.5786 8.032 11.3814 8.07122 11.1823 8.07122Z" fill="#6E6F72"/>
</svg>
