<svg width="20" height="20" viewBox="0 0 20 20" fill="none" xmlns="http://www.w3.org/2000/svg">
<path fill-rule="evenodd" clip-rule="evenodd" d="M6.08316 11.8924L6.0972 11.8819L8.56127 9.42628L11.0116 11.8682C11.0673 11.9252 11.1337 11.9705 11.2071 12.0016C11.2812 12.0329 11.3609 12.0491 11.4414 12.0491C11.5219 12.0491 11.6015 12.0329 11.6757 12.0016C11.7491 11.9705 11.8156 11.9251 11.8714 11.868L14.7491 8.99025C14.8062 8.93453 14.8516 8.86802 14.8826 8.79459C14.914 8.72047 14.9302 8.6408 14.9302 8.56031C14.9302 8.47981 14.914 8.40014 14.8826 8.32602C14.8518 8.2531 14.8068 8.187 14.7503 8.13152C14.6948 8.07502 14.6287 8.03004 14.5558 7.99916C14.4817 7.96779 14.402 7.95162 14.3215 7.95162C14.241 7.95162 14.1613 7.96779 14.0872 7.99916C14.0138 8.03022 13.9474 8.07555 13.8917 8.13252L11.4414 10.5745L8.99108 8.13254C8.93539 8.07556 8.86893 8.03022 8.79555 7.99916C8.72143 7.96779 8.64176 7.95162 8.56127 7.95162C8.48078 7.95162 8.40111 7.96779 8.32699 7.99916C8.25353 8.03026 8.18701 8.07566 8.13129 8.13271L5.2398 11.0242L5.22914 11.0384C5.14104 11.1559 5.09827 11.3012 5.10867 11.4477C5.11908 11.5941 5.18198 11.7319 5.28581 11.8358C5.38964 11.9396 5.52744 12.0025 5.67391 12.0129C5.82038 12.0233 5.96569 11.9805 6.08316 11.8924Z" fill="#2867B2"/>
<path fill-rule="evenodd" clip-rule="evenodd" d="M14.0861 1.70158C12.8154 1.07583 11.4179 0.750266 10.0014 0.75C8.38203 0.749827 6.791 1.17475 5.38737 1.98229C3.98375 2.78982 2.81671 3.95168 2.00293 5.35169C1.18914 6.75169 0.757131 8.3408 0.750088 9.96013C0.743197 11.5442 1.14323 13.103 1.91104 14.4872L1.12931 17.232C1.06537 17.4594 1.06316 17.6998 1.1229 17.9283C1.18264 18.1569 1.30218 18.3654 1.46923 18.5325C1.63627 18.6995 1.8448 18.8191 2.07336 18.8788C2.30192 18.9385 2.54309 18.9361 2.77051 18.8722L5.51448 18.0906C6.72175 18.7599 8.06395 19.1508 9.44273 19.2339C10.8566 19.3192 12.2713 19.0787 13.5775 18.5308C14.8837 17.9829 16.0467 17.1424 16.9767 16.074C17.9068 15.0056 18.579 13.7379 18.9417 12.3686C19.3043 10.9994 19.3477 9.56511 19.0684 8.17643C18.7891 6.78776 18.1946 5.48177 17.3308 4.35917C16.467 3.23656 15.3569 2.32733 14.0861 1.70158ZM14.9003 16.3666C13.4957 17.4465 11.7733 18.0316 10.0015 18.0307C8.55755 18.034 7.13917 17.6449 5.89927 16.905L5.89207 16.9007L5.8846 16.8969C5.79506 16.8513 5.69635 16.8266 5.59589 16.8246H5.45708L2.4378 17.6886C2.41958 17.6932 2.40045 17.6931 2.38227 17.6882C2.3636 17.6832 2.34659 17.6734 2.33293 17.6598C2.31927 17.6461 2.30944 17.6291 2.30445 17.6104C2.29958 17.5922 2.29946 17.5731 2.3041 17.5549L3.15842 14.5693L3.15946 14.5655C3.20192 14.4076 3.18024 14.2393 3.0991 14.0974L3.09712 14.0941C2.19387 12.5698 1.82011 10.7895 2.03407 9.03068C2.24802 7.27182 3.03767 5.6331 4.28001 4.36978C5.52235 3.10647 7.14762 2.2895 8.90266 2.04614C10.6577 1.80278 12.4439 2.14668 13.9832 3.02429C15.5224 3.90189 16.7281 5.26392 17.4126 6.8982C18.0971 8.53248 18.2218 10.3472 17.7674 12.0598C17.313 13.7724 16.305 15.2866 14.9003 16.3666Z" fill="#2867B2"/>
</svg>
