<svg width="21" height="21" viewBox="0 0 21 21" fill="none" xmlns="http://www.w3.org/2000/svg">
<rect x="0.346229" y="0.577674" width="20.0769" height="20.0769" rx="10.0385" fill="#FEFEFF"/>
<rect x="0.346229" y="0.577674" width="20.0769" height="20.0769" rx="10.0385" stroke="#D61F1F" stroke-width="0.692308"/>
<path d="M12.2404 7.74534L14.0414 5.94426H12.9254C12.7342 5.94426 12.5792 5.78928 12.5792 5.59811C12.5792 5.40693 12.7342 5.25195 12.9254 5.25195H14.8835C15.0747 5.25195 15.2297 5.40693 15.2297 5.59811V7.55625C15.2297 7.74742 15.0747 7.9024 14.8835 7.9024C14.6923 7.9024 14.5374 7.74742 14.5374 7.55625V6.42742L12.4295 8.53529L12.4287 8.53611C12.408 8.55817 12.3842 8.57787 12.3572 8.59448C12.1945 8.69481 11.9813 8.64422 11.8809 8.48149L11.0755 7.17511C10.9751 7.01237 11.0257 6.79912 11.1885 6.69879C11.3512 6.59846 11.5644 6.64904 11.6648 6.81177L12.2404 7.74534Z" fill="#D61F1F"/>
<path fill-rule="evenodd" clip-rule="evenodd" d="M11.9399 8.04575L14.0414 5.94426H12.9254C12.7342 5.94426 12.5792 5.78928 12.5792 5.59811C12.5792 5.40693 12.7342 5.25195 12.9254 5.25195H14.8835C15.0747 5.25195 15.2297 5.40693 15.2297 5.59811V7.55625C15.2297 7.74742 15.0747 7.9024 14.8835 7.9024C14.6923 7.9024 14.5374 7.74742 14.5374 7.55625V6.42742L12.4295 8.53529C12.2943 8.67047 12.0751 8.67047 11.9399 8.53529C11.8047 8.4001 11.8047 8.18093 11.9399 8.04575ZM7.13229 5.59807C6.83223 5.59807 6.54303 5.71699 6.32861 5.93098L5.99477 6.26385C5.55473 6.70317 5.27684 7.28047 5.20874 7.90083C5.1408 8.51961 5.28586 9.14243 5.6189 9.66669L5.61972 9.66806C5.62301 9.67352 5.62643 9.67889 5.63 9.68416C7.19407 11.9952 9.1868 13.985 11.5001 15.5463L11.5031 15.5484C11.5072 15.5513 11.5114 15.5541 11.5156 15.5568C12.0393 15.8898 12.6603 16.034 13.2761 15.9664C13.8919 15.8989 14.4674 15.6235 14.9071 15.184L15.2401 14.8515C15.3464 14.7454 15.4311 14.619 15.4891 14.4793C15.5471 14.3396 15.577 14.1896 15.577 14.0379C15.577 13.8863 15.5471 13.7363 15.4891 13.5966C15.4311 13.4569 15.3464 13.3305 15.2401 13.2244L13.8349 11.8221C13.7287 11.716 13.603 11.6322 13.4651 11.5752C13.3272 11.5181 13.1797 11.4888 13.0308 11.4888C12.882 11.4888 12.7344 11.5181 12.5965 11.5752C12.4586 11.6322 12.3328 11.7161 12.2266 11.8223C12.1431 11.9056 12.0283 11.9537 11.9072 11.9537C11.786 11.9537 11.6711 11.9055 11.5876 11.8221L9.34086 9.57785C9.25759 9.49466 9.21219 9.38346 9.21219 9.26911C9.21219 9.15481 9.25755 9.04366 9.34074 8.96049C9.44708 8.85436 9.53182 8.72795 9.58978 8.58828C9.64775 8.44859 9.67768 8.29859 9.67768 8.14692C9.67768 7.99526 9.64775 7.84526 9.58978 7.70557C9.53182 7.56589 9.44708 7.43948 9.34074 7.33336L7.93613 5.93113C7.72169 5.71705 7.43242 5.59807 7.13229 5.59807ZM6.81273 6.43573C6.89628 6.35232 7.01109 6.30418 7.13229 6.30418C7.2535 6.30418 7.36832 6.35233 7.45186 6.43574L8.85655 7.83804C8.89787 7.87928 8.93026 7.92785 8.95222 7.98077C8.97417 8.03368 8.98537 8.09011 8.98537 8.14692C8.98537 8.20374 8.97417 8.26017 8.95222 8.31307C8.93026 8.36599 8.89776 8.41468 8.85643 8.45593C8.64181 8.67033 8.51988 8.96267 8.51988 9.26911C8.51988 9.57554 8.64182 9.8679 8.85644 10.0823L11.1033 12.3267C11.3177 12.5408 11.607 12.6598 11.9072 12.6598C12.2073 12.6598 12.4967 12.5407 12.7111 12.3266C12.7524 12.2853 12.8019 12.2522 12.8568 12.2295C12.9118 12.2067 12.9709 12.1949 13.0308 12.1949C13.0907 12.1949 13.1499 12.2067 13.2048 12.2295C13.2598 12.2522 13.3094 12.2855 13.3507 12.3268L14.7559 13.7291C14.7972 13.7703 14.8296 13.8189 14.8515 13.8718C14.8735 13.9247 14.8847 13.9811 14.8847 14.0379C14.8847 14.0947 14.8735 14.1512 14.8515 14.2041C14.8296 14.257 14.7971 14.3056 14.7558 14.3469L14.4225 14.6797C14.0952 15.0068 13.6648 15.2136 13.202 15.2644C12.7419 15.3148 12.2788 15.2078 11.8886 14.9619L11.8844 14.959C9.6463 13.4489 7.71884 11.5251 6.2058 9.29196L6.20186 9.2858C5.95385 8.89694 5.8466 8.43617 5.89674 7.97941C5.9469 7.52259 6.15171 7.09524 6.47905 6.76845L6.81273 6.43573Z" fill="#D61F1F"/>
</svg>
