<svg width="28" height="26" viewBox="0 0 28 26" fill="none" xmlns="http://www.w3.org/2000/svg">
<rect x="1.5" y="0.5" width="25" height="25" rx="12.5" fill="#FEFEFF"/>
<rect x="1.5" y="0.5" width="25" height="25" rx="12.5" stroke="#ED8F03"/>
<path d="M14.3667 18.0149C14.2583 18.0149 14.1653 17.984 14.0879 17.922C14.0104 17.86 13.9562 17.7825 13.9252 17.6896C13.7083 17.0388 13.4449 16.4965 13.135 16.0627C12.8251 15.6289 12.5152 15.2105 12.2053 14.8077C11.8955 14.4048 11.6359 13.9865 11.4268 13.5527C11.2176 13.1188 11.113 12.592 11.113 11.9723C11.113 11.0736 11.4306 10.3067 12.0659 9.67143C12.7011 9.03618 13.4681 8.71855 14.3667 8.71855C15.2654 8.71855 16.0324 9.03618 16.6676 9.67143C17.3029 10.3067 17.6205 11.0736 17.6205 11.9723C17.6205 12.592 17.5159 13.1188 17.3067 13.5527C17.0976 13.9865 16.838 14.4048 16.5282 14.8077C16.2183 15.2105 15.9084 15.6289 15.5985 16.0627C15.2886 16.4965 15.0252 17.0388 14.8083 17.6896C14.7773 17.7825 14.7231 17.86 14.6456 17.922C14.5682 17.984 14.4752 18.0149 14.3667 18.0149ZM14.3667 15.412C14.5062 15.195 14.6456 14.9936 14.7851 14.8077C14.9245 14.6218 15.0562 14.4436 15.1802 14.2731C15.5365 13.8083 15.7999 13.421 15.9704 13.1111C16.1408 12.8012 16.226 12.4216 16.226 11.9723C16.226 11.461 16.044 11.0233 15.6799 10.6592C15.3158 10.2951 14.878 10.113 14.3667 10.113C13.8554 10.113 13.4177 10.2951 13.0536 10.6592C12.6895 11.0233 12.5075 11.461 12.5075 11.9723C12.5075 12.4216 12.5927 12.8012 12.7631 13.1111C12.9336 13.421 13.197 13.8083 13.5533 14.2731C13.6773 14.4436 13.809 14.6218 13.9484 14.8077C14.0879 14.9936 14.2273 15.195 14.3667 15.412ZM14.3667 13.1343C14.6921 13.1343 14.9671 13.022 15.1918 12.7973C15.4165 12.5727 15.5288 12.2977 15.5288 11.9723C15.5288 11.6469 15.4165 11.3719 15.1918 11.1472C14.9671 10.9226 14.6921 10.8102 14.3667 10.8102C14.0414 10.8102 13.7664 10.9226 13.5417 11.1472C13.317 11.3719 13.2047 11.6469 13.2047 11.9723C13.2047 12.2977 13.317 12.5727 13.5417 12.7973C13.7664 13.022 14.0414 13.1343 14.3667 13.1343ZM14.3667 21.7335C12.0427 21.7335 10.0672 20.9201 8.4403 19.2932C6.81343 17.6663 6 15.6908 6 13.3667C6 12.2047 6.22079 11.1162 6.66237 10.1014C7.10395 9.08654 7.70046 8.20338 8.45192 7.45192C9.20338 6.70046 10.0865 6.10395 11.1014 5.66237C12.1162 5.22079 13.2047 5 14.3667 5C15.5288 5 16.6172 5.22079 17.6321 5.66237C18.647 6.10395 19.5301 6.70046 20.2816 7.45192C21.033 8.20338 21.6295 9.08654 22.0711 10.1014C22.5127 11.1162 22.7335 12.2047 22.7335 13.3667V13.5527L23.9653 12.2977L25.29 13.5992L21.8039 17.0853L18.3177 13.5992L19.6424 12.2977L20.8742 13.5294V13.3667C20.8742 11.5694 20.239 10.0355 18.9685 8.76504C17.698 7.49453 16.164 6.85928 14.3667 6.85928C12.5694 6.85928 11.0355 7.49453 9.76504 8.76504C8.49453 10.0355 7.85928 11.5694 7.85928 13.3667C7.87477 15.164 8.5139 16.698 9.77666 17.9685C11.0394 19.239 12.5694 19.8742 14.3667 19.8742C15.2499 19.8742 16.0788 19.7077 16.8535 19.3745C17.6282 19.0414 18.31 18.5882 18.8987 18.0149L20.2235 19.3397C19.4643 20.0834 18.585 20.6683 17.5856 21.0944C16.5863 21.5205 15.5133 21.7335 14.3667 21.7335Z" fill="#ED8F03"/>
</svg>
