<svg width="30" height="30" viewBox="0 0 30 30" fill="none" xmlns="http://www.w3.org/2000/svg">
<rect x="0.5" y="0.5" width="29" height="29" rx="14.5" fill="#FEFEFF"/>
<rect x="0.5" y="0.5" width="29" height="29" rx="14.5" stroke="#64696C"/>
<path fill-rule="evenodd" clip-rule="evenodd" d="M11.0832 16.8924L11.0972 16.8819L13.5613 14.4263L16.0116 16.8682C16.0673 16.9252 16.1337 16.9705 16.2071 17.0016C16.2812 17.0329 16.3609 17.0491 16.4414 17.0491C16.5219 17.0491 16.6015 17.0329 16.6757 17.0016C16.7491 16.9705 16.8156 16.9251 16.8714 16.868L19.7491 13.9902C19.8062 13.9345 19.8516 13.868 19.8826 13.7946C19.914 13.7205 19.9302 13.6408 19.9302 13.5603C19.9302 13.4798 19.914 13.4001 19.8826 13.326C19.8518 13.2531 19.8068 13.187 19.7503 13.1315C19.6948 13.075 19.6287 13.03 19.5558 12.9992C19.4817 12.9678 19.402 12.9516 19.3215 12.9516C19.241 12.9516 19.1613 12.9678 19.0872 12.9992C19.0138 13.0302 18.9474 13.0756 18.8917 13.1325L16.4414 15.5745L13.9911 13.1325C13.9354 13.0756 13.8689 13.0302 13.7956 12.9992C13.7214 12.9678 13.6418 12.9516 13.5613 12.9516C13.4808 12.9516 13.4011 12.9678 13.327 12.9992C13.2535 13.0303 13.187 13.0757 13.1313 13.1327L10.2398 16.0242L10.2291 16.0384C10.141 16.1559 10.0983 16.3012 10.1087 16.4477C10.1191 16.5941 10.182 16.7319 10.2858 16.8358C10.3896 16.9396 10.5274 17.0025 10.6739 17.0129C10.8204 17.0233 10.9657 16.9805 11.0832 16.8924Z" fill="#171717"/>
<path fill-rule="evenodd" clip-rule="evenodd" d="M19.0861 6.70158C17.8154 6.07583 16.4179 5.75027 15.0014 5.75C13.382 5.74983 11.791 6.17475 10.3874 6.98229C8.98375 7.78982 7.81671 8.95168 7.00293 10.3517C6.18914 11.7517 5.75713 13.3408 5.75009 14.9601C5.7432 16.5442 6.14323 18.103 6.91104 19.4872L6.12931 22.232C6.06537 22.4594 6.06316 22.6998 6.1229 22.9283C6.18264 23.1569 6.30218 23.3654 6.46923 23.5325C6.63627 23.6995 6.8448 23.8191 7.07336 23.8788C7.30192 23.9385 7.54309 23.9361 7.77051 23.8722L10.5145 23.0906C11.7218 23.7599 13.0639 24.1508 14.4427 24.2339C15.8566 24.3192 17.2713 24.0787 18.5775 23.5308C19.8837 22.9829 21.0467 22.1424 21.9767 21.074C22.9068 20.0056 23.579 18.7379 23.9417 17.3686C24.3043 15.9994 24.3477 14.5651 24.0684 13.1764C23.7891 11.7878 23.1946 10.4818 22.3308 9.35917C21.467 8.23656 20.3569 7.32733 19.0861 6.70158ZM19.9003 21.3666C18.4957 22.4465 16.7733 23.0316 15.0015 23.0307C13.5575 23.034 12.1392 22.6449 10.8993 21.905L10.8921 21.9007L10.8846 21.8969C10.7951 21.8513 10.6963 21.8266 10.5959 21.8246H10.4571L7.4378 22.6886C7.41958 22.6932 7.40045 22.6931 7.38227 22.6882C7.3636 22.6832 7.34659 22.6734 7.33293 22.6598C7.31927 22.6461 7.30944 22.6291 7.30445 22.6104C7.29958 22.5922 7.29946 22.5731 7.3041 22.5549L8.15842 19.5693L8.15946 19.5655C8.20192 19.4076 8.18024 19.2393 8.0991 19.0974L8.09712 19.0941C7.19387 17.5698 6.82011 15.7895 7.03407 14.0307C7.24802 12.2718 8.03767 10.6331 9.28001 9.36978C10.5223 8.10647 12.1476 7.2895 13.9027 7.04614C15.6577 6.80278 17.4439 7.14668 18.9832 8.02429C20.5224 8.90189 21.7281 10.2639 22.4126 11.8982C23.0971 13.5325 23.2218 15.3472 22.7674 17.0598C22.313 18.7724 21.305 20.2866 19.9003 21.3666Z" fill="#171717"/>
</svg>
